<svg width="18" height="18" viewBox="0 0 18 18" fill="none" xmlns="http://www.w3.org/2000/svg">
<path d="M16.8648 5.06595C16.8648 3.76288 15.8084 2.70654 14.5054 2.70654H3.49468C2.19159 2.70654 1.13525 3.7629 1.13525 5.06597V12.9307C1.13525 14.2338 2.19161 15.2902 3.49468 15.2902H14.5054C15.8084 15.2902 16.8648 14.2338 16.8648 12.9307V11.3578H12.9324C11.6293 11.3578 10.573 10.3014 10.573 8.99835C10.573 7.69528 11.6294 6.63893 12.9324 6.63893H16.8648V5.06597L16.8648 5.06595Z" fill="white"/>
<path d="M11.7524 9.00149C11.7524 9.31437 11.8767 9.61444 12.098 9.83568C12.3192 10.0569 12.6193 10.1812 12.9322 10.1812C13.245 10.1812 13.5451 10.0569 13.7663 9.83568C13.9876 9.61444 14.1119 9.31437 14.1119 9.00149C14.1119 8.68861 13.9876 8.38855 13.7663 8.16731C13.5451 7.94607 13.245 7.82178 12.9322 7.82178C12.6193 7.82178 12.3192 7.94607 12.098 8.16731C11.8767 8.38855 11.7524 8.68861 11.7524 9.00149Z" fill="white"/>
</svg>
