<svg width="32" height="32" viewBox="0 0 32 32" fill="none" xmlns="http://www.w3.org/2000/svg">
<path d="M26.2526 0H5.74744C2.57819 0 0 2.57819 0 5.74744V26.2525C0 29.4218 2.57819 32 5.74744 32H26.2526C29.4218 32 32 29.4218 32 26.2526V5.74744C32 2.57819 29.4218 0 26.2526 0ZM27.0431 24.9726H16.7874C15.8861 27.6407 12.0996 27.6448 11.1969 24.9726H4.95687C3.71175 24.9726 3.71144 23.0902 4.95687 23.0902H11.1969C12.0982 20.4221 15.8848 20.418 16.7874 23.0902H27.0431C28.2882 23.0902 28.2886 24.9726 27.0431 24.9726ZM27.0431 16.9412H24.8188C23.9174 19.6093 20.1309 19.6134 19.2282 16.9412H4.95687C3.71175 16.9412 3.71144 15.0588 4.95687 15.0588H19.2283C20.1296 12.3907 23.9161 12.3866 24.8189 15.0588H27.0432C28.2882 15.0588 28.2886 16.9412 27.0431 16.9412ZM27.0431 8.90981H12.7718C11.8704 11.5779 8.08387 11.582 7.18119 8.90981H4.95687C3.71175 8.90981 3.71144 7.02744 4.95687 7.02744H7.18119C8.0825 4.35931 11.8691 4.35525 12.7718 7.02744H27.0431C28.2882 7.02744 28.2886 8.90981 27.0431 8.90981Z" fill="black"/>
<path d="M13.9923 22.9647C12.581 22.9647 12.5817 25.098 13.9923 25.098C15.4035 25.0981 15.4028 22.9647 13.9923 22.9647Z" fill="black"/>
<path d="M9.97666 6.90192C8.56535 6.90192 8.5661 9.03523 9.97666 9.03523C11.3879 9.03529 11.3872 6.90192 9.97666 6.90192Z" fill="black"/>
<path d="M22.0235 14.9333C20.6122 14.9333 20.613 17.0666 22.0235 17.0666C23.4349 17.0667 23.4341 14.9333 22.0235 14.9333Z" fill="black"/>
</svg>
