<svg width="24" height="24" viewBox="0 0 24 24" fill="none" xmlns="http://www.w3.org/2000/svg">
<circle cx="12" cy="12" r="12" fill="white"/>
<path d="M6 7C6 6.44772 6.44772 6 7 6H8.08032C8.29969 6 8.51297 6.07213 8.6873 6.20529L14.4479 10.6051C15.106 11.1078 16.0549 10.6385 16.0549 9.81044V6.97256C16.0549 6.43543 16.4903 6 17.0274 6C17.5646 6 18 6.43543 18 6.97256V12.2C18 12.7523 17.5523 13.2 17 13.2H16.039C15.8222 13.2 15.6113 13.1295 15.438 12.9992L9.55642 8.57632C8.89735 8.0807 7.9554 8.55092 7.9554 9.37556V12.2223C7.9554 12.7623 7.51767 13.2 6.9777 13.2C6.43773 13.2 6 12.7623 6 12.2223V7Z" fill="black"/>
<path d="M6 17.0223C6 17.5623 6.43773 18 6.9777 18H7.15486C7.59699 18 7.9554 17.6416 7.9554 17.1995L8.41852 16.9963C8.41852 17.4681 8.90437 17.7835 9.33534 17.5915L15.705 14.7536L16.0549 14.5977V17.0274C16.0549 17.5646 16.4903 18 17.0274 18C17.5646 18 18 17.5646 18 17.0274V14.7726C18 14.2354 17.5646 13.8 17.0274 13.8H16.8526C16.412 13.8 16.0549 14.1571 16.0549 14.5977L15.705 14.7536C15.705 14.304 15.2434 14.0025 14.8317 14.1831L8.41852 16.9963L7.9554 17.1995V14.7777C7.9554 14.2377 7.51767 13.8 6.9777 13.8C6.43773 13.8 6 14.2377 6 14.7777V17.0223Z" fill="#62929E"/>
</svg>
