<svg width="90" height="54" viewBox="0 0 90 54" fill="none" xmlns="http://www.w3.org/2000/svg">
<path d="M18.4249 10.5507C33.1019 -3.51689 56.8982 -3.51689 71.5752 10.5507L73.3416 12.2437C74.0755 12.9471 74.0755 14.0875 73.3416 14.7909L67.2991 20.5825C66.9322 20.9341 66.3373 20.9341 65.9703 20.5825L63.5396 18.2526C53.3005 8.43874 36.6996 8.43874 26.4605 18.2526L23.8574 20.7477C23.4904 21.0994 22.8955 21.0994 22.5286 20.7477L16.4861 14.9561C15.7522 14.2527 15.7522 13.1123 16.4861 12.4089L18.4249 10.5507ZM84.0718 22.5283L89.4496 27.6828C90.1835 28.3862 90.1835 29.5266 89.4496 30.23L65.2005 53.4725C64.4666 54.1758 63.2768 54.1758 62.5429 53.4725C62.5429 53.4725 62.5429 53.4725 62.5429 53.4725L45.3324 36.9766C45.1489 36.8008 44.8514 36.8008 44.668 36.9766C44.668 36.9766 44.668 36.9766 44.668 36.9766L27.4578 53.4725C26.7239 54.1758 25.5341 54.1758 24.8002 53.4725C24.8002 53.4725 24.8002 53.4725 24.8002 53.4725L0.55039 30.2297C-0.183463 29.5263 -0.183463 28.3859 0.55039 27.6825L5.92826 22.528C6.66212 21.8246 7.85193 21.8246 8.58578 22.528L25.7966 39.0241C25.9801 39.1999 26.2775 39.1999 26.461 39.0241C26.461 39.0241 26.461 39.0241 26.461 39.0241L43.671 22.528C44.4048 21.8246 45.5946 21.8246 46.3285 22.5279C46.3285 22.5279 46.3285 22.5279 46.3285 22.528L63.5393 39.0241C63.7228 39.1999 64.0202 39.1999 64.2037 39.0241L81.4142 22.5283C82.1481 21.8249 83.3379 21.8249 84.0718 22.5283Z" fill="#3B99FC"/>
</svg>
