<svg width="18" height="18" viewBox="0 0 18 18" fill="none" xmlns="http://www.w3.org/2000/svg">
<path d="M9.00003 3.09375C5.19753 3.09375 1.68754 5.31 0.0563086 8.74687C-0.0168164 8.90998 -0.0168164 9.10124 0.0563086 9.25873C1.69317 12.69 5.20316 14.9062 9.00003 14.9062C12.7969 14.9062 16.3069 12.69 17.9438 9.25873C18.0169 9.10124 18.0169 8.90998 17.9438 8.74687C16.3125 5.31 12.8025 3.09375 9.00003 3.09375ZM9.00003 12.5662C7.03691 12.5662 5.4338 10.9631 5.4338 9C5.4338 7.03688 7.03691 5.43373 9.00003 5.43373C10.9632 5.43373 12.5663 7.03688 12.5663 9C12.5663 10.9631 10.9632 12.5662 9.00003 12.5662Z" fill="black"/>
<path d="M9.0002 11.3625C10.305 11.3625 11.3627 10.3047 11.3627 8.99995C11.3627 7.69518 10.305 6.63745 9.0002 6.63745C7.69542 6.63745 6.6377 7.69518 6.6377 8.99995C6.6377 10.3047 7.69542 11.3625 9.0002 11.3625Z" fill="black"/>
</svg>
