<svg width="18" height="18" viewBox="0 0 18 18" fill="none" xmlns="http://www.w3.org/2000/svg">
<path d="M6.29406 16.9039V14.1437C6.29405 13.4443 6.89274 12.876 7.63431 12.8716H10.3572C11.1021 12.8716 11.7059 13.4412 11.7059 14.1437V16.8959C11.7059 17.5026 12.2249 17.9956 12.868 18H14.7257C15.5933 18.0021 16.4262 17.6785 17.0405 17.1006C17.6548 16.5228 18 15.7381 18 14.9198V7.07926C18 6.41825 17.6893 5.79124 17.1517 5.36715L10.8407 0.606842C9.73754 -0.22579 8.16193 -0.198893 7.09142 0.670846L0.916117 5.36715C0.353123 5.77874 0.0166285 6.40761 0 7.07926V14.9118C0 16.6173 1.46594 18 3.27427 18H5.08954C5.39922 18.0021 5.69699 17.8876 5.91676 17.6818C6.13654 17.476 6.26014 17.196 6.26013 16.9039H6.29406Z" fill="white"/>
</svg>
