<svg width="18" height="18" viewBox="0 0 18 18" fill="none" xmlns="http://www.w3.org/2000/svg">
<g clip-path="url(#clip0_248_12354)">
<path d="M1.5 10.875H8.4375V18H2.8125C2.0925 18 1.5 17.4075 1.5 16.6875V10.875Z" fill="white"/>
<path d="M16.5 10.875V16.6875C16.5 17.4075 15.9075 18 15.1875 18H9.5625V10.875H16.5Z" fill="white"/>
<path d="M0 6.5625V8.43751C0 9.15751 0.592499 9.75001 1.3125 9.75001H1.5H8.43749V8.62501V5.25H1.3125C0.592499 5.25 0 5.8425 0 6.5625Z" fill="white"/>
<path d="M16.6875 5.25H9.5625V8.62501V9.75001H16.5H16.6875C17.4075 9.75001 18 9.15751 18 8.43751V6.5625C18 5.8425 17.4075 5.25 16.6875 5.25Z" fill="white"/>
<path d="M8.9998 6.03306C8.8363 6.03306 8.6803 5.96181 8.57455 5.83806C8.4673 5.71431 8.42005 5.55006 8.4433 5.38806C8.7208 3.51306 10.1855 -0.0336914 13.7465 -0.0336914C15.779 -0.0329414 16.4998 1.06506 16.4998 2.00556C16.4998 3.67731 14.1725 6.03306 8.9998 6.03306ZM13.7465 1.09206C11.06 1.09206 10.04 3.64581 9.7018 4.89156C11.8213 4.79256 13.1578 4.25631 13.9273 3.79956C14.9945 3.16581 15.3748 2.45706 15.3748 2.00481C15.3748 1.33131 14.534 1.09206 13.7465 1.09206Z" fill="white"/>
<path d="M9.00097 6.03304C3.82822 6.03304 1.50098 3.67729 1.50098 2.00554C1.50098 1.06504 2.22248 -0.032959 4.25497 -0.032959C7.81522 -0.032959 9.27997 3.51379 9.55747 5.38879C9.58072 5.55079 9.53347 5.71504 9.42622 5.83879C9.32047 5.96179 9.16447 6.03304 9.00097 6.03304ZM4.25497 1.09204C3.46747 1.09204 2.62598 1.33204 2.62598 2.00554C2.62598 2.96329 4.30072 4.70854 8.29822 4.89229C7.96072 3.64579 6.94072 1.09204 4.25497 1.09204Z" fill="white"/>
</g>
<defs>
<clipPath id="clip0_248_12354">
<rect width="18" height="18" fill="white"/>
</clipPath>
</defs>
</svg>
