<svg width="18" height="18" viewBox="0 0 18 18" fill="none" xmlns="http://www.w3.org/2000/svg">
<path d="M4.5 7.07007H0.643933C0.289958 7.07007 0.00376569 7.35626 0 7.714V17.3542C0 17.7119 0.289958 17.9981 0.643933 17.9981H4.5C4.85774 17.9981 5.14393 17.7081 5.14393 17.3542V7.714C5.14393 7.35626 4.85397 7.07007 4.5 7.07007Z" fill="white"/>
<path d="M10.9282 0.00195312H7.07216C6.71818 0.00195312 6.42822 0.288146 6.42822 0.642121V17.3543C6.42822 17.712 6.71818 17.9982 7.07216 17.9982H10.9282C11.286 17.9982 11.5722 17.7082 11.5722 17.3543V0.645887C11.5722 0.288146 11.2822 0.00195312 10.9282 0.00195312Z" fill="white"/>
<path d="M17.356 5.14209H13.4999C13.1421 5.14209 12.856 5.42828 12.856 5.78602V17.3542C12.856 17.712 13.1459 17.9982 13.4999 17.9982H17.356C17.7137 17.9982 17.9999 17.7082 17.9999 17.3542V5.78602C17.9999 5.42828 17.7099 5.14209 17.356 5.14209Z" fill="white"/>
</svg>
